<mxfile host="app.diagrams.net" modified="2020-07-31T09:58:14.320Z" agent="5.0 (Windows NT 6.1; Win64; x64) AppleWebKit/537.36 (KHTML, like Gecko) Chrome/73.0.3683.103 Safari/537.36" etag="7PIVurPpP79NqhKnIlqy" version="13.5.5" type="github">
  <diagram id="Zd2d16wufieMr73oknzC" name="Page-1">
    <mxGraphModel dx="918" dy="512" grid="1" gridSize="10" guides="1" tooltips="1" connect="1" arrows="1" fold="1" page="1" pageScale="1" pageWidth="827" pageHeight="1169" math="0" shadow="0">
      <root>
        <mxCell id="0" />
        <mxCell id="1" parent="0" />
        <mxCell id="VcqsJPtHIRY4LmEztvHu-1" value="order：base" style="swimlane;fontStyle=0;childLayout=stackLayout;horizontal=1;startSize=26;fillColor=none;horizontalStack=0;resizeParent=1;resizeParentMax=0;resizeLast=0;collapsible=1;marginBottom=0;" vertex="1" parent="1">
          <mxGeometry x="220" y="40" width="190" height="162" as="geometry" />
        </mxCell>
        <mxCell id="VcqsJPtHIRY4LmEztvHu-2" value="+ 项目名称: type" style="text;strokeColor=none;fillColor=none;align=left;verticalAlign=top;spacingLeft=4;spacingRight=4;overflow=hidden;rotatable=0;points=[[0,0.5],[1,0.5]];portConstraint=eastwest;" vertex="1" parent="VcqsJPtHIRY4LmEztvHu-1">
          <mxGeometry y="26" width="190" height="26" as="geometry" />
        </mxCell>
        <mxCell id="VcqsJPtHIRY4LmEztvHu-3" value="+ 生产小板数量: type" style="text;strokeColor=none;fillColor=none;align=left;verticalAlign=top;spacingLeft=4;spacingRight=4;overflow=hidden;rotatable=0;points=[[0,0.5],[1,0.5]];portConstraint=eastwest;" vertex="1" parent="VcqsJPtHIRY4LmEztvHu-1">
          <mxGeometry y="52" width="190" height="26" as="geometry" />
        </mxCell>
        <mxCell id="VcqsJPtHIRY4LmEztvHu-4" value="+ SMT贴片做哪面: type" style="text;strokeColor=none;fillColor=none;align=left;verticalAlign=top;spacingLeft=4;spacingRight=4;overflow=hidden;rotatable=0;points=[[0,0.5],[1,0.5]];portConstraint=eastwest;" vertex="1" parent="VcqsJPtHIRY4LmEztvHu-1">
          <mxGeometry y="78" width="190" height="32" as="geometry" />
        </mxCell>
        <mxCell id="VcqsJPtHIRY4LmEztvHu-72" value="1" style="endArrow=open;html=1;endSize=12;startArrow=diamondThin;startSize=14;startFill=1;edgeStyle=orthogonalEdgeStyle;align=left;verticalAlign=bottom;entryX=0;entryY=0;entryDx=0;entryDy=0;" edge="1" parent="VcqsJPtHIRY4LmEztvHu-1" target="VcqsJPtHIRY4LmEztvHu-68">
          <mxGeometry x="-1" y="3" relative="1" as="geometry">
            <mxPoint x="190" y="122.5" as="sourcePoint" />
            <mxPoint x="280" y="57" as="targetPoint" />
            <Array as="points">
              <mxPoint x="220" y="123" />
              <mxPoint x="220" y="46" />
            </Array>
          </mxGeometry>
        </mxCell>
        <mxCell id="VcqsJPtHIRY4LmEztvHu-11" value="+ 生产必要文件: attribute" style="text;strokeColor=none;fillColor=none;align=left;verticalAlign=top;spacingLeft=4;spacingRight=4;overflow=hidden;rotatable=0;points=[[0,0.5],[1,0.5]];portConstraint=eastwest;" vertex="1" parent="VcqsJPtHIRY4LmEztvHu-1">
          <mxGeometry y="110" width="190" height="26" as="geometry" />
        </mxCell>
        <mxCell id="VcqsJPtHIRY4LmEztvHu-12" value="+ 设置详细订单消息: attribute" style="text;strokeColor=none;fillColor=none;align=left;verticalAlign=top;spacingLeft=4;spacingRight=4;overflow=hidden;rotatable=0;points=[[0,0.5],[1,0.5]];portConstraint=eastwest;" vertex="1" parent="VcqsJPtHIRY4LmEztvHu-1">
          <mxGeometry y="136" width="190" height="26" as="geometry" />
        </mxCell>
        <mxCell id="VcqsJPtHIRY4LmEztvHu-18" value="简易订单" style="html=1;" vertex="1" parent="1">
          <mxGeometry x="22" y="330" width="110" height="50" as="geometry" />
        </mxCell>
        <mxCell id="VcqsJPtHIRY4LmEztvHu-19" value="Extends" style="endArrow=block;endSize=16;endFill=0;html=1;exitX=0.5;exitY=0;exitDx=0;exitDy=0;entryX=-0.011;entryY=0.086;entryDx=0;entryDy=0;entryPerimeter=0;" edge="1" parent="1" source="VcqsJPtHIRY4LmEztvHu-18" target="VcqsJPtHIRY4LmEztvHu-1">
          <mxGeometry width="160" relative="1" as="geometry">
            <mxPoint x="330" y="220" as="sourcePoint" />
            <mxPoint x="490" y="220" as="targetPoint" />
            <Array as="points">
              <mxPoint x="100" y="54" />
            </Array>
          </mxGeometry>
        </mxCell>
        <mxCell id="VcqsJPtHIRY4LmEztvHu-21" value="标准订单" style="html=1;" vertex="1" parent="1">
          <mxGeometry x="100" y="270" width="110" height="50" as="geometry" />
        </mxCell>
        <mxCell id="VcqsJPtHIRY4LmEztvHu-28" value="Use" style="endArrow=open;endSize=12;dashed=1;html=1;entryX=1.016;entryY=0.074;entryDx=0;entryDy=0;entryPerimeter=0;exitX=-0.021;exitY=0.051;exitDx=0;exitDy=0;exitPerimeter=0;" edge="1" parent="1" source="VcqsJPtHIRY4LmEztvHu-22" target="VcqsJPtHIRY4LmEztvHu-1">
          <mxGeometry width="160" relative="1" as="geometry">
            <mxPoint x="330" y="220" as="sourcePoint" />
            <mxPoint x="490" y="220" as="targetPoint" />
          </mxGeometry>
        </mxCell>
        <mxCell id="VcqsJPtHIRY4LmEztvHu-29" value="Extends" style="endArrow=block;endSize=16;endFill=0;html=1;exitX=0;exitY=0.5;exitDx=0;exitDy=0;entryX=-0.026;entryY=0.093;entryDx=0;entryDy=0;entryPerimeter=0;" edge="1" parent="1" source="VcqsJPtHIRY4LmEztvHu-21" target="VcqsJPtHIRY4LmEztvHu-1">
          <mxGeometry width="160" relative="1" as="geometry">
            <mxPoint x="90" y="190" as="sourcePoint" />
            <mxPoint x="250" y="190" as="targetPoint" />
            <Array as="points">
              <mxPoint x="110" y="190" />
            </Array>
          </mxGeometry>
        </mxCell>
        <mxCell id="VcqsJPtHIRY4LmEztvHu-35" value="1" style="endArrow=open;html=1;endSize=12;startArrow=diamondThin;startSize=14;startFill=1;edgeStyle=orthogonalEdgeStyle;align=left;verticalAlign=bottom;entryX=0.5;entryY=0;entryDx=0;entryDy=0;" edge="1" parent="1" source="VcqsJPtHIRY4LmEztvHu-12" target="VcqsJPtHIRY4LmEztvHu-30">
          <mxGeometry x="-1" y="3" relative="1" as="geometry">
            <mxPoint x="470" y="310" as="sourcePoint" />
            <mxPoint x="630" y="310" as="targetPoint" />
            <Array as="points">
              <mxPoint x="420" y="189" />
              <mxPoint x="420" y="260" />
              <mxPoint x="320" y="260" />
            </Array>
          </mxGeometry>
        </mxCell>
        <mxCell id="VcqsJPtHIRY4LmEztvHu-36" value="&lt;br&gt;组合关系" style="shape=note;whiteSpace=wrap;html=1;size=14;verticalAlign=top;align=left;spacingTop=-6;" vertex="1" parent="1">
          <mxGeometry x="420" y="220" width="57.14" height="40" as="geometry" />
        </mxCell>
        <mxCell id="VcqsJPtHIRY4LmEztvHu-37" value="继承" style="shape=note;whiteSpace=wrap;html=1;size=14;verticalAlign=top;align=left;spacingTop=-6;" vertex="1" parent="1">
          <mxGeometry x="40" y="160" width="50" height="30" as="geometry" />
        </mxCell>
        <mxCell id="VcqsJPtHIRY4LmEztvHu-38" value="&lt;br&gt;依赖关系" style="shape=note;whiteSpace=wrap;html=1;size=14;verticalAlign=top;align=left;spacingTop=-6;" vertex="1" parent="1">
          <mxGeometry x="460" y="6" width="57.14" height="40" as="geometry" />
        </mxCell>
        <mxCell id="VcqsJPtHIRY4LmEztvHu-39" value="pcb信息" style="swimlane;fontStyle=0;childLayout=stackLayout;horizontal=1;startSize=26;fillColor=none;horizontalStack=0;resizeParent=1;resizeParentMax=0;resizeLast=0;collapsible=1;marginBottom=0;" vertex="1" parent="1">
          <mxGeometry x="530" y="240" width="140" height="104" as="geometry" />
        </mxCell>
        <mxCell id="VcqsJPtHIRY4LmEztvHu-40" value="+ 拼板规则: type" style="text;strokeColor=none;fillColor=none;align=left;verticalAlign=top;spacingLeft=4;spacingRight=4;overflow=hidden;rotatable=0;points=[[0,0.5],[1,0.5]];portConstraint=eastwest;" vertex="1" parent="VcqsJPtHIRY4LmEztvHu-39">
          <mxGeometry y="26" width="140" height="26" as="geometry" />
        </mxCell>
        <mxCell id="VcqsJPtHIRY4LmEztvHu-41" value="+ 拼版后大板尺寸: type" style="text;strokeColor=none;fillColor=none;align=left;verticalAlign=top;spacingLeft=4;spacingRight=4;overflow=hidden;rotatable=0;points=[[0,0.5],[1,0.5]];portConstraint=eastwest;" vertex="1" parent="VcqsJPtHIRY4LmEztvHu-39">
          <mxGeometry y="52" width="140" height="26" as="geometry" />
        </mxCell>
        <mxCell id="VcqsJPtHIRY4LmEztvHu-42" value="+ field: type" style="text;strokeColor=none;fillColor=none;align=left;verticalAlign=top;spacingLeft=4;spacingRight=4;overflow=hidden;rotatable=0;points=[[0,0.5],[1,0.5]];portConstraint=eastwest;" vertex="1" parent="VcqsJPtHIRY4LmEztvHu-39">
          <mxGeometry y="78" width="140" height="26" as="geometry" />
        </mxCell>
        <mxCell id="VcqsJPtHIRY4LmEztvHu-43" value="资料处理" style="swimlane;fontStyle=0;childLayout=stackLayout;horizontal=1;startSize=26;fillColor=none;horizontalStack=0;resizeParent=1;resizeParentMax=0;resizeLast=0;collapsible=1;marginBottom=0;" vertex="1" parent="1">
          <mxGeometry x="530" y="370" width="200" height="104" as="geometry" />
        </mxCell>
        <mxCell id="VcqsJPtHIRY4LmEztvHu-44" value="+ 坐标文件含MARK数据: type" style="text;strokeColor=none;fillColor=none;align=left;verticalAlign=top;spacingLeft=4;spacingRight=4;overflow=hidden;rotatable=0;points=[[0,0.5],[1,0.5]];portConstraint=eastwest;" vertex="1" parent="VcqsJPtHIRY4LmEztvHu-43">
          <mxGeometry y="26" width="200" height="26" as="geometry" />
        </mxCell>
        <mxCell id="VcqsJPtHIRY4LmEztvHu-45" value="+ Bom含安装类型列: type" style="text;strokeColor=none;fillColor=none;align=left;verticalAlign=top;spacingLeft=4;spacingRight=4;overflow=hidden;rotatable=0;points=[[0,0.5],[1,0.5]];portConstraint=eastwest;" vertex="1" parent="VcqsJPtHIRY4LmEztvHu-43">
          <mxGeometry y="52" width="200" height="26" as="geometry" />
        </mxCell>
        <mxCell id="VcqsJPtHIRY4LmEztvHu-46" value="+ field: type" style="text;strokeColor=none;fillColor=none;align=left;verticalAlign=top;spacingLeft=4;spacingRight=4;overflow=hidden;rotatable=0;points=[[0,0.5],[1,0.5]];portConstraint=eastwest;" vertex="1" parent="VcqsJPtHIRY4LmEztvHu-43">
          <mxGeometry y="78" width="200" height="26" as="geometry" />
        </mxCell>
        <mxCell id="VcqsJPtHIRY4LmEztvHu-30" value="设置详细订单消息" style="swimlane;fontStyle=0;childLayout=stackLayout;horizontal=1;startSize=30;fillColor=none;horizontalStack=0;resizeParent=1;resizeParentMax=0;resizeLast=0;collapsible=1;marginBottom=0;" vertex="1" parent="1">
          <mxGeometry x="250" y="290" width="140" height="160" as="geometry" />
        </mxCell>
        <mxCell id="VcqsJPtHIRY4LmEztvHu-63" value="1" style="endArrow=open;html=1;endSize=12;startArrow=diamondThin;startSize=14;startFill=1;edgeStyle=orthogonalEdgeStyle;align=left;verticalAlign=bottom;exitX=1;exitY=0.5;exitDx=0;exitDy=0;entryX=0.014;entryY=0.135;entryDx=0;entryDy=0;entryPerimeter=0;" edge="1" parent="VcqsJPtHIRY4LmEztvHu-30" source="VcqsJPtHIRY4LmEztvHu-33">
          <mxGeometry x="-1" y="3" relative="1" as="geometry">
            <mxPoint x="140" y="77.82799999999997" as="sourcePoint" />
            <mxPoint x="282.79999999999995" y="128.17999999999995" as="targetPoint" />
            <Array as="points">
              <mxPoint x="230" y="100" />
              <mxPoint x="230" y="128" />
            </Array>
          </mxGeometry>
        </mxCell>
        <mxCell id="VcqsJPtHIRY4LmEztvHu-54" value="&#xa;+ pcb信息: type" style="text;strokeColor=none;fillColor=none;align=left;verticalAlign=top;spacingLeft=4;spacingRight=4;overflow=hidden;rotatable=0;points=[[0,0.5],[1,0.5]];portConstraint=eastwest;" vertex="1" parent="VcqsJPtHIRY4LmEztvHu-30">
          <mxGeometry y="30" width="140" height="50" as="geometry" />
        </mxCell>
        <mxCell id="VcqsJPtHIRY4LmEztvHu-33" value="+ 可制造性: type" style="text;strokeColor=none;fillColor=none;align=left;verticalAlign=top;spacingLeft=4;spacingRight=4;overflow=hidden;rotatable=0;points=[[0,0.5],[1,0.5]];portConstraint=eastwest;" vertex="1" parent="VcqsJPtHIRY4LmEztvHu-30">
          <mxGeometry y="80" width="140" height="40" as="geometry" />
        </mxCell>
        <mxCell id="VcqsJPtHIRY4LmEztvHu-55" value="+ 资料处理: type" style="text;strokeColor=none;fillColor=none;align=left;verticalAlign=top;spacingLeft=4;spacingRight=4;overflow=hidden;rotatable=0;points=[[0,0.5],[1,0.5]];portConstraint=eastwest;" vertex="1" parent="VcqsJPtHIRY4LmEztvHu-30">
          <mxGeometry y="120" width="140" height="40" as="geometry" />
        </mxCell>
        <mxCell id="VcqsJPtHIRY4LmEztvHu-67" value="1" style="endArrow=open;html=1;endSize=12;startArrow=diamondThin;startSize=14;startFill=1;edgeStyle=orthogonalEdgeStyle;align=left;verticalAlign=bottom;exitX=1;exitY=0.5;exitDx=0;exitDy=0;entryX=-0.007;entryY=0.135;entryDx=0;entryDy=0;entryPerimeter=0;" edge="1" parent="1" source="VcqsJPtHIRY4LmEztvHu-54" target="VcqsJPtHIRY4LmEztvHu-39">
          <mxGeometry x="-1" y="3" relative="1" as="geometry">
            <mxPoint x="330" y="220" as="sourcePoint" />
            <mxPoint x="490" y="220" as="targetPoint" />
            <Array as="points">
              <mxPoint x="500" y="345" />
              <mxPoint x="500" y="254" />
            </Array>
          </mxGeometry>
        </mxCell>
        <mxCell id="VcqsJPtHIRY4LmEztvHu-22" value="导入材料清单数据" style="swimlane;fontStyle=0;childLayout=stackLayout;horizontal=1;startSize=26;fillColor=none;horizontalStack=0;resizeParent=1;resizeParentMax=0;resizeLast=0;collapsible=1;marginBottom=0;" vertex="1" parent="1">
          <mxGeometry x="670" y="46" width="140" height="156" as="geometry" />
        </mxCell>
        <mxCell id="VcqsJPtHIRY4LmEztvHu-23" value="+ field: type" style="text;strokeColor=none;fillColor=none;align=left;verticalAlign=top;spacingLeft=4;spacingRight=4;overflow=hidden;rotatable=0;points=[[0,0.5],[1,0.5]];portConstraint=eastwest;" vertex="1" parent="VcqsJPtHIRY4LmEztvHu-22">
          <mxGeometry y="26" width="140" height="26" as="geometry" />
        </mxCell>
        <mxCell id="VcqsJPtHIRY4LmEztvHu-24" value="+ field: type" style="text;strokeColor=none;fillColor=none;align=left;verticalAlign=top;spacingLeft=4;spacingRight=4;overflow=hidden;rotatable=0;points=[[0,0.5],[1,0.5]];portConstraint=eastwest;" vertex="1" parent="VcqsJPtHIRY4LmEztvHu-22">
          <mxGeometry y="52" width="140" height="26" as="geometry" />
        </mxCell>
        <mxCell id="VcqsJPtHIRY4LmEztvHu-25" value="+ field: type" style="text;strokeColor=none;fillColor=none;align=left;verticalAlign=top;spacingLeft=4;spacingRight=4;overflow=hidden;rotatable=0;points=[[0,0.5],[1,0.5]];portConstraint=eastwest;" vertex="1" parent="VcqsJPtHIRY4LmEztvHu-22">
          <mxGeometry y="78" width="140" height="26" as="geometry" />
        </mxCell>
        <mxCell id="VcqsJPtHIRY4LmEztvHu-27" value="+ item: attribute" style="text;strokeColor=none;fillColor=none;align=left;verticalAlign=top;spacingLeft=4;spacingRight=4;overflow=hidden;rotatable=0;points=[[0,0.5],[1,0.5]];portConstraint=eastwest;" vertex="1" parent="VcqsJPtHIRY4LmEztvHu-22">
          <mxGeometry y="104" width="140" height="26" as="geometry" />
        </mxCell>
        <mxCell id="VcqsJPtHIRY4LmEztvHu-26" value="+ item: attribute" style="text;strokeColor=none;fillColor=none;align=left;verticalAlign=top;spacingLeft=4;spacingRight=4;overflow=hidden;rotatable=0;points=[[0,0.5],[1,0.5]];portConstraint=eastwest;" vertex="1" parent="VcqsJPtHIRY4LmEztvHu-22">
          <mxGeometry y="130" width="140" height="26" as="geometry" />
        </mxCell>
        <mxCell id="VcqsJPtHIRY4LmEztvHu-68" value="生产必要文件" style="swimlane;fontStyle=0;childLayout=stackLayout;horizontal=1;startSize=26;fillColor=none;horizontalStack=0;resizeParent=1;resizeParentMax=0;resizeLast=0;collapsible=1;marginBottom=0;" vertex="1" parent="1">
          <mxGeometry x="500" y="86" width="140" height="104" as="geometry" />
        </mxCell>
        <mxCell id="VcqsJPtHIRY4LmEztvHu-69" value="+ Bom物料清单: type" style="text;strokeColor=none;fillColor=none;align=left;verticalAlign=top;spacingLeft=4;spacingRight=4;overflow=hidden;rotatable=0;points=[[0,0.5],[1,0.5]];portConstraint=eastwest;" vertex="1" parent="VcqsJPtHIRY4LmEztvHu-68">
          <mxGeometry y="26" width="140" height="26" as="geometry" />
        </mxCell>
        <mxCell id="VcqsJPtHIRY4LmEztvHu-70" value="+ PP坐标文件: type" style="text;strokeColor=none;fillColor=none;align=left;verticalAlign=top;spacingLeft=4;spacingRight=4;overflow=hidden;rotatable=0;points=[[0,0.5],[1,0.5]];portConstraint=eastwest;" vertex="1" parent="VcqsJPtHIRY4LmEztvHu-68">
          <mxGeometry y="52" width="140" height="26" as="geometry" />
        </mxCell>
        <mxCell id="VcqsJPtHIRY4LmEztvHu-71" value="+ PCB厂工程文件: type" style="text;strokeColor=none;fillColor=none;align=left;verticalAlign=top;spacingLeft=4;spacingRight=4;overflow=hidden;rotatable=0;points=[[0,0.5],[1,0.5]];portConstraint=eastwest;" vertex="1" parent="VcqsJPtHIRY4LmEztvHu-68">
          <mxGeometry y="78" width="140" height="26" as="geometry" />
        </mxCell>
      </root>
    </mxGraphModel>
  </diagram>
</mxfile>
